<svg fill="#ffffff" role="img" viewBox="0 0 24 24" xmlns="http://www.w3.org/2000/svg"><title>Sourcegraph</title><path d="M12.678 20.685c-1.076.19-2.124-.493-2.335-1.525l-2.92-14.273c-.19-1.076.514-2.124 1.59-2.314 1.075-.19 2.123.493 2.334 1.525l2.898 14.294c.19 1.032-.492 2.102-1.567 2.293zM4.478 17.77c-.713.063-1.398-.276-1.78-.9-.682-.857-.535-2.081.34-2.785L16.3 2.612c.874-.683 2.145-.535 2.806.34.682.856.534 2.08-.34 2.784L5.527 17.168a2.092 2.092 0 0 1-1.05.601zM19.522 14.858a2.077 2.077 0 0 1-1.006.085L4.51 11.136c-1.031-.362-1.58-1.453-1.22-2.485.362-1.032 1.496-1.559 2.528-1.197l14.006 3.807c1.032.362 1.58 1.453 1.22 2.485-.23.661-.79 1.14-1.521 1.112z"/></svg>
